<svg id="visual" viewBox="0 0 960 300" width="960" height="300" xmlns="http://www.w3.org/2000/svg" xmlns:xlink="http://www.w3.org/1999/xlink" version="1.1"><rect x="0" y="0" width="960" height="300" fill="#fed7aa"></rect><path d="M0 173L16 164.3C32 155.7 64 138.3 96 134.8C128 131.3 160 141.7 192 141.7C224 141.7 256 131.3 288 127.7C320 124 352 127 384 123.5C416 120 448 110 480 110.3C512 110.7 544 121.3 576 130C608 138.7 640 145.3 672 140.7C704 136 736 120 768 116.8C800 113.7 832 123.3 864 129.5C896 135.7 928 138.3 944 139.7L960 141L960 301L944 301C928 301 896 301 864 301C832 301 800 301 768 301C736 301 704 301 672 301C640 301 608 301 576 301C544 301 512 301 480 301C448 301 416 301 384 301C352 301 320 301 288 301C256 301 224 301 192 301C160 301 128 301 96 301C64 301 32 301 16 301L0 301Z" fill="#de612b"></path><path d="M0 177L16 178.7C32 180.3 64 183.7 96 182.5C128 181.3 160 175.7 192 176.8C224 178 256 186 288 183.5C320 181 352 168 384 167.2C416 166.3 448 177.7 480 184.2C512 190.7 544 192.3 576 187.8C608 183.3 640 172.7 672 172.2C704 171.7 736 181.3 768 181C800 180.7 832 170.3 864 165.8C896 161.3 928 162.7 944 163.3L960 164L960 301L944 301C928 301 896 301 864 301C832 301 800 301 768 301C736 301 704 301 672 301C640 301 608 301 576 301C544 301 512 301 480 301C448 301 416 301 384 301C352 301 320 301 288 301C256 301 224 301 192 301C160 301 128 301 96 301C64 301 32 301 16 301L0 301Z" fill="#e87230"></path><path d="M0 198L16 198C32 198 64 198 96 202.3C128 206.7 160 215.3 192 218.5C224 221.7 256 219.3 288 217.3C320 215.3 352 213.7 384 214.2C416 214.7 448 217.3 480 214.8C512 212.3 544 204.7 576 208.2C608 211.7 640 226.3 672 224.2C704 222 736 203 768 197.3C800 191.7 832 199.3 864 204C896 208.7 928 210.3 944 211.2L960 212L960 301L944 301C928 301 896 301 864 301C832 301 800 301 768 301C736 301 704 301 672 301C640 301 608 301 576 301C544 301 512 301 480 301C448 301 416 301 384 301C352 301 320 301 288 301C256 301 224 301 192 301C160 301 128 301 96 301C64 301 32 301 16 301L0 301Z" fill="#f28236"></path><path d="M0 257L16 259.5C32 262 64 267 96 267.5C128 268 160 264 192 261.7C224 259.3 256 258.7 288 255.2C320 251.7 352 245.3 384 245.3C416 245.3 448 251.7 480 256.8C512 262 544 266 576 263.7C608 261.3 640 252.7 672 246.3C704 240 736 236 768 236.2C800 236.3 832 240.7 864 243.2C896 245.7 928 246.3 944 246.7L960 247L960 301L944 301C928 301 896 301 864 301C832 301 800 301 768 301C736 301 704 301 672 301C640 301 608 301 576 301C544 301 512 301 480 301C448 301 416 301 384 301C352 301 320 301 288 301C256 301 224 301 192 301C160 301 128 301 96 301C64 301 32 301 16 301L0 301Z" fill="#fb923c"></path></svg>