<svg id="visual" viewBox="0 0 960 100" width="960" height="100" xmlns="http://www.w3.org/2000/svg" xmlns:xlink="http://www.w3.org/1999/xlink" version="1.1"><path d="M0 48L8 49.5C16 51 32 54 48 58.8C64 63.7 80 70.3 96 66.8C112 63.3 128 49.7 144 44.7C160 39.7 176 43.3 192 50.3C208 57.3 224 67.7 240 68.3C256 69 272 60 288 54C304 48 320 45 336 42.3C352 39.7 368 37.3 384 36C400 34.7 416 34.3 432 38.8C448 43.3 464 52.7 480 60.7C496 68.7 512 75.3 528 70.7C544 66 560 50 576 45.8C592 41.7 608 49.3 624 53.8C640 58.3 656 59.7 672 62.7C688 65.7 704 70.3 720 72C736 73.7 752 72.3 768 66.8C784 61.3 800 51.7 816 48.5C832 45.3 848 48.7 864 54.8C880 61 896 70 912 66.7C928 63.3 944 47.7 952 39.8L960 32L960 101L952 101C944 101 928 101 912 101C896 101 880 101 864 101C848 101 832 101 816 101C800 101 784 101 768 101C752 101 736 101 720 101C704 101 688 101 672 101C656 101 640 101 624 101C608 101 592 101 576 101C560 101 544 101 528 101C512 101 496 101 480 101C464 101 448 101 432 101C416 101 400 101 384 101C368 101 352 101 336 101C320 101 304 101 288 101C272 101 256 101 240 101C224 101 208 101 192 101C176 101 160 101 144 101C128 101 112 101 96 101C80 101 64 101 48 101C32 101 16 101 8 101L0 101Z" fill="#fb923c" stroke-linecap="round" stroke-linejoin="miter"></path></svg>