<svg id="visual" viewBox="0 0 960 300" width="960" height="300" xmlns="http://www.w3.org/2000/svg" xmlns:xlink="http://www.w3.org/1999/xlink" version="1.1"><rect x="0" y="0" width="960" height="300" fill="#fb923c"></rect><path d="M0 57L10 60C20 63 40 69 60 82C80 95 100 115 120 117.2C140 119.3 160 103.7 180 99C200 94.3 220 100.7 240 107.2C260 113.7 280 120.3 300 111.3C320 102.3 340 77.7 360 77C380 76.3 400 99.7 420 113.8C440 128 460 133 480 132.3C500 131.7 520 125.3 540 111.3C560 97.3 580 75.7 600 64.7C620 53.7 640 53.3 660 54.3C680 55.3 700 57.7 720 66.8C740 76 760 92 780 105.7C800 119.3 820 130.7 840 130.8C860 131 880 120 900 104.3C920 88.7 940 68.3 950 58.2L960 48L960 0L950 0C940 0 920 0 900 0C880 0 860 0 840 0C820 0 800 0 780 0C760 0 740 0 720 0C700 0 680 0 660 0C640 0 620 0 600 0C580 0 560 0 540 0C520 0 500 0 480 0C460 0 440 0 420 0C400 0 380 0 360 0C340 0 320 0 300 0C280 0 260 0 240 0C220 0 200 0 180 0C160 0 140 0 120 0C100 0 80 0 60 0C40 0 20 0 10 0L0 0Z" fill="#fed7aa" stroke-linecap="round" stroke-linejoin="miter"></path></svg>